RBDS026runT45_grf
version=1
nRows=15
nColumns=19
inDegrees=no
endheader
time	ground_force_r_vx	ground_force_r_vy	ground_force_r_vz	ground_force_r_px	ground_force_r_py	ground_force_r_pz	ground_force_r_mx	ground_force_r_my	ground_force_r_mz	ground_force_l_vx	ground_force_l_vy	ground_force_l_vz	ground_force_l_px	ground_force_l_py	ground_force_l_pz	ground_force_l_mx	ground_force_l_my	ground_force_l_mz
     14.99900000	   -255.06539033	   1791.05098474	     36.76391603	      2.32838333	      0.00000000	      1.07713532	      0.00000000	     21.47597827	     -0.00000000	      0.00000000	      0.00000000	      0.00000000	      0.00000000	      0.00000000	      0.00000000	      0.00000000	      0.00000000	      0.00000000
     15.00000000	   -258.00807498	   1827.45526154	     37.14932570	      2.32628237	      0.00000000	      1.07671752	      0.00000000	     21.67493236	     -0.00000000	      0.00000000	      0.00000000	      0.00000000	      0.00000000	      0.00000000	      0.00000000	      0.00000000	      0.00000000	      0.00000000
     15.00100000	   -260.35549887	   1859.40045649	     37.22323360	      2.32405234	      0.00000000	      1.07640991	      0.00000000	     21.79672880	     -0.00000000	      0.00000000	      0.00000000	      0.00000000	      0.00000000	      0.00000000	      0.00000000	      0.00000000	      0.00000000	      0.00000000
     15.00200000	   -262.70292277	   1891.34565143	     37.29714151	      2.32182230	      0.00000000	      1.07610231	      0.00000000	     21.91852524	     -0.00000000	      0.00000000	      0.00000000	      0.00000000	      0.00000000	      0.00000000	      0.00000000	      0.00000000	      0.00000000	      0.00000000
     15.00300000	   -265.05034667	   1923.29084638	     37.37104941	      2.31959227	      0.00000000	      1.07579471	      0.00000000	     22.04032169	     -0.00000000	      0.00000000	      0.00000000	      0.00000000	      0.00000000	      0.00000000	      0.00000000	      0.00000000	      0.00000000	      0.00000000
     15.00400000	   -266.94912282	   1952.31500401	     37.21595925	      2.31727202	      0.00000000	      1.07555903	      0.00000000	     22.11071151	     -0.00000000	      0.00000000	      0.00000000	      0.00000000	      0.00000000	      0.00000000	      0.00000000	      0.00000000	      0.00000000	      0.00000000
     15.00500000	   -268.62357510	   1979.87864298	     36.94637007	      2.31490667	      0.00000000	      1.07535931	      0.00000000	     22.15539802	     -0.00000000	      0.00000000	      0.00000000	      0.00000000	      0.00000000	      0.00000000	      0.00000000	      0.00000000	      0.00000000	      0.00000000
     15.00600000	   -270.29802738	   2007.44228194	     36.67678088	      2.31254131	      0.00000000	      1.07515959	      0.00000000	     22.20008453	     -0.00000000	      0.00000000	      0.00000000	      0.00000000	      0.00000000	      0.00000000	      0.00000000	      0.00000000	      0.00000000	      0.00000000
     15.00700000	   -271.72394017	   2033.59705665	     36.28620926	      2.31012947	      0.00000000	      1.07499419	      0.00000000	     22.21964095	     -0.00000000	      0.00000000	      0.00000000	      0.00000000	      0.00000000	      0.00000000	      0.00000000	      0.00000000	      0.00000000	      0.00000000
     15.00800000	   -272.65277395	   2056.93410281	     35.65367278	      2.30762464	      0.00000000	      1.07489740	      0.00000000	     22.18893718	     -0.00000000	      0.00000000	      0.00000000	      0.00000000	      0.00000000	      0.00000000	      0.00000000	      0.00000000	      0.00000000	      0.00000000
     15.00900000	   -273.58160774	   2080.27114897	     35.02113629	      2.30511981	      0.00000000	      1.07480062	      0.00000000	     22.15823342	     -0.00000000	      0.00000000	      0.00000000	      0.00000000	      0.00000000	      0.00000000	      0.00000000	      0.00000000	      0.00000000	      0.00000000
     15.01000000	   -274.51044153	   2103.60819514	     34.38859980	      2.30261498	      0.00000000	      1.07470384	      0.00000000	     22.12752965	     -0.00000000	      0.00000000	      0.00000000	      0.00000000	      0.00000000	      0.00000000	      0.00000000	      0.00000000	      0.00000000	      0.00000000
     15.01100000	   -274.62881950	   2122.93455458	     33.38913381	      2.29996851	      0.00000000	      1.07470262	      0.00000000	     22.02506436	     -0.00000000	      0.00000000	      0.00000000	      0.00000000	      0.00000000	      0.00000000	      0.00000000	      0.00000000	      0.00000000	      0.00000000
     15.01200000	   -274.74719748	   2142.26091403	     32.38966783	      2.29732203	      0.00000000	      1.07470141	      0.00000000	     21.92259907	     -0.00000000	      0.00000000	      0.00000000	      0.00000000	      0.00000000	      0.00000000	      0.00000000	      0.00000000	      0.00000000	      0.00000000
     15.01300000	   -274.86557546	   2161.58727347	     31.39020184	      2.29467556	      0.00000000	      1.07470019	      0.00000000	     21.82013379	     -0.00000000	      0.00000000	      0.00000000	      0.00000000	      0.00000000	      0.00000000	      0.00000000	      0.00000000	      0.00000000	      0.00000000
